Coordinates
version=1
nRows=24
nColumns=19
inDegrees=yes

Units are S.I. units (second, meters, Newtons, ...)
If the header above contains a line with 'inDegrees', this indicates whether rotational values are in degrees (yes) or radians (no).

endheader
time	pelvis_tilt	pelvis_list	pelvis_rotation	pelvis_tx	pelvis_ty	pelvis_tz	hip_flexion_r	hip_adduction_r	hip_rotation_r	knee_angle_r	knee_angle_r_beta	ankle_angle_r	hip_flexion_l	hip_adduction_l	hip_rotation_l	knee_angle_l	knee_angle_l_beta	ankle_angle_l
     11.55333333	     -0.51557653	     -4.86075401	     -5.75876133	      2.40456837	      1.03790875	      1.00877009	     21.68102314	     10.16335456	     -2.48333147	      9.79651518	      0.17098145	      6.96980484	    -18.83921292	     -7.07431922	    -16.30622684	     67.28112946	      1.17427723	    -11.86439028
     11.56000000	     -0.25444604	     -5.33706965	     -5.96356207	      2.40343402	      1.03333352	      1.00904859	     21.97223487	     10.44716286	     -3.58451067	     12.62686883	      0.22038044	      6.45094154	    -17.70150329	     -7.54979675	    -15.41389904	     71.37498235	      1.24572845	    -11.83723533
     11.56666667	     -0.12874912	     -5.72082536	     -6.25127466	      2.40200036	      1.02830574	      1.00916678	     22.54947106	     10.58839828	     -4.69271641	     15.86162990	      0.27683767	      5.85994901	    -16.34195546	     -7.89228931	    -14.59487845	     75.39281339	      1.31585283	    -11.78434316
     11.57333333	     -0.02354967	     -6.10782083	     -6.58409194	      2.40049989	      1.02285475	      1.00910433	     23.23740195	     10.68250948	     -5.66488216	     19.43626214	      0.33922677	      5.63794220	    -14.93240909	     -8.20871879	    -13.85837970	     79.28499263	      1.38378417	    -11.68690529
     11.58000000	     -0.00372092	     -6.40260018	     -6.92087226	      2.39879199	      1.01717551	      1.00884971	     24.03963841	     10.63574998	     -6.54446837	     23.13305180	      0.40374792	      5.56307097	    -13.34632788	     -8.43703279	    -13.13903705	     83.05394750	      1.44956484	    -11.51412713
     11.58666667	     -0.02335259	     -6.63897709	     -7.27932690	      2.39692395	      1.01136883	      1.00844833	     24.86177094	     10.52380403	     -7.20086080	     26.86876980	      0.46894850	      5.84201322	    -11.65377384	     -8.60880370	    -12.46375248	     86.66874803	      1.51265501	    -11.25379950
     11.59333333	     -0.07676179	     -6.83404964	     -7.61580645	      2.39487825	      1.00558319	      1.00790853	     25.64565595	     10.38123036	     -7.63998893	     30.52088462	      0.53268993	      6.50969567	     -9.84006295	     -8.76055162	    -11.78985533	     90.12378388	      1.57295676	    -10.91531969
     11.60000000	     -0.20137732	     -6.98095828	     -7.96929259	      2.39271138	      0.99987668	      1.00733143	     26.39352496	     10.25424218	     -7.79640669	     34.01957644	      0.59375362	      7.57406261	     -7.87442660	     -8.90203707	    -11.15543898	     93.40163485	      1.63016605	    -10.50058473
     11.60666667	     -0.33911251	     -7.10729413	     -8.25684850	      2.39038150	      0.99447267	      1.00668799	     26.99602335	     10.15097944	     -7.77043564	     37.25734189	      0.65026329	      9.01177071	     -5.78708775	     -9.05773051	    -10.46129834	     96.49011263	      1.68407016	    -10.03788693
     11.61333333	     -0.55665590	     -7.18052965	     -8.46790373	      2.38792543	      0.98941084	      1.00601856	     27.50015292	     10.04883251	     -7.58975792	     40.18601592	      0.70137829	     10.74252266	     -3.48287896	     -9.21780974	     -9.69420300	     99.37877604	      1.73448685	     -9.62935271
     11.62000000	     -0.69998015	     -7.29956889	     -8.60965620	      2.38540918	      0.98491670	      1.00540934	     27.68833792	     10.03699322	     -7.30557737	     42.72142081	      0.74562945	     12.68765876	     -1.18354362	     -9.43379779	     -8.85993621	    102.01131870	      1.78043339	     -9.13957895
     11.62666667	     -0.91057849	     -7.36173623	     -8.63066466	      2.38284810	      0.98094464	      1.00476905	     27.71713659	      9.98392143	     -6.99679399	     44.86736619	      0.78308327	     14.75513095	      1.32566963	     -9.62304425	     -7.90140684	    104.39962355	      1.82211717	     -8.67461729
     11.63333333	     -1.13482891	     -7.39843890	     -8.55704286	      2.38033270	      0.97759207	      1.00420414	     27.50496396	      9.92989579	     -6.64972386	     46.57906532	      0.81295805	     16.85555404	      3.94657560	     -9.78810887	     -6.85179299	    106.49351633	      1.85866249	     -8.26827945
     11.64000000	     -1.34177482	     -7.41324970	     -8.33766153	      2.37791574	      0.97492099	      1.00363794	     27.02007954	      9.82781954	     -6.37883238	     47.85861919	      0.83529048	     18.88273258	      6.63852741	     -9.91473773	     -5.68535264	    108.27297175	      1.88971985	     -7.87641804
     11.64666667	     -1.36144047	     -7.44458429	     -8.02864160	      2.37571624	      0.97317428	      1.00312749	     26.05400324	      9.73506729	     -6.10279582	     48.66853006	      0.84942609	     20.80487723	      9.13740109	    -10.00456710	     -4.50764292	    109.67326224	      1.91415953	     -7.44461342
     11.65333333	     -1.75453365	     -7.31438175	     -7.57020317	      2.37364761	      0.97159949	      1.00261038	     25.32049033	      9.44956114	     -6.02132038	     49.16122263	      0.85802520	     22.51961288	     12.16003544	     -9.89827645	     -3.18649780	    110.78505562	      1.93356398	     -7.14596520
     11.66000000	     -1.97058751	     -7.17084413	     -7.11061319	      2.37192621	      0.97087590	      1.00220634	     24.15689816	      9.18119171	     -5.86005442	     49.25677227	      0.85969285	     24.00076828	     14.90101523	     -9.71900961	     -2.00807550	    111.48129010	      1.94571557	     -6.77732339
     11.66666667	     -2.10530444	     -6.99089711	     -6.58898640	      2.37049621	      0.97087598	      1.00184776	     22.70759860	      8.85677376	     -5.78158932	     49.00515468	      0.85530130	     25.27173940	     17.48432517	     -9.44395601	     -0.90627478	    111.78447363	      1.95100712	     -6.34382029
     11.67333333	     -2.36755915	     -6.72213769	     -5.97877755	      2.36947080	      0.97132086	      1.00148940	     21.22449989	      8.44140613	     -5.80897645	     48.43674290	      0.84538064	     26.27354040	     20.13379501	     -9.01372185	      0.14230535	    111.73473791	      1.95013907	     -5.88266212
     11.68000000	     -2.64533462	     -6.39147514	     -5.39979868	      2.36880063	      0.97232424	      1.00121759	     19.60848488	      7.99803178	     -5.82530232	     47.60609234	      0.83088306	     27.02175058	     22.64633264	     -8.51266934	      0.98282921	    111.29835607	      1.94252277	     -5.34274531
     11.68666667	     -2.90783520	     -6.01087492	     -4.84150361	      2.36851257	      0.97389957	      1.00099820	     17.84015574	      7.53632938	     -5.82533552	     46.52127878	      0.81194949	     27.50410591	     24.97035889	     -7.92806201	      1.63854847	    110.49183539	      1.92844632	     -4.70885752
     11.69333333	     -3.18601791	     -5.56988706	     -4.27108430	      2.36864559	      0.97589998	      1.00085416	     15.98479513	      7.03812973	     -5.84646762	     45.25006271	      0.78976258	     27.70693778	     27.13295231	     -7.31592591	      2.10088541	    109.34746767	      1.90847334	     -3.99439435
     11.70000000	     -3.41845000	     -5.10122439	     -3.70049094	      2.36917291	      0.97845681	      1.00067628	     13.97518413	      6.51530265	     -5.92654642	     43.76765835	      0.76388974	     27.56383787	     29.05726938	     -6.65963137	      2.40046128	    107.86055472	      1.88252181	     -3.22422462
     11.70666667	     -3.56674006	     -4.58972666	     -3.16707384	      2.37012570	      0.98154792	      1.00056159	     11.78843659	      5.97797295	     -5.98160180	     42.11589943	      0.73506111	     27.10095162	     30.67464895	     -6.01385450	      2.47587282	    106.04478451	      1.85083064	     -2.37614859
